<?xml version="1.0" encoding="utf-8" ?>
<svg baseProfile="full" height="57.5mm" version="1.1" viewBox="0,0,306.20000000000005,57.5" width="306.20000000000005mm" xmlns="http://www.w3.org/2000/svg" xmlns:ev="http://www.w3.org/2001/xml-events" xmlns:xlink="http://www.w3.org/1999/xlink"><defs /><rect fill="#222222" height="57.5" width="306.20000000000005" x="0" y="0" /><text fill="#FFFFFF" style="font-size:6px; font-family:Arial; font-weight:bold;" x="10" y="10">tester</text><text fill="#FFFFFF" style="font-size:3px; font-family:Arial;" x="10" y="14.4">2021: 11122 times</text><text fill="#FFFFFF" style="font-size:2.5px; font-family:Arial" x="10" y="18.3">Jan</text><rect fill="#26b236" height="4" rx="1" ry="1" width="4" x="10" y="19.7"><title>2020-12-28 343 times</title></rect><rect fill="#26b236" height="4" rx="1" ry="1" width="4" x="10" y="25.1"><title>2020-12-29 492 times</title></rect><rect fill="#26b236" height="4" rx="1" ry="1" width="4" x="10" y="30.5"><title>2020-12-30 936 times</title></rect><rect fill="#26b236" height="4" rx="1" ry="1" width="4" x="10" y="35.9"><title>2020-12-31 610 times</title></rect><rect fill="#27eaa9" height="4" rx="1" ry="1" width="4" x="10" y="41.300000000000004"><title>2021-01-01 5 times</title></rect><rect fill="#a0eba8" height="4" rx="1" ry="1" width="4" x="10" y="46.699999999999996"><title>2021-01-02 1 times</title></rect><rect fill="#27eaa9" height="4" rx="1" ry="1" width="4" x="10" y="52.1"><title>2021-01-03 6 times</title></rect><rect fill="#27eaa9" height="4" rx="1" ry="1" width="4" x="15.4" y="19.7"><title>2021-01-04 13 times</title></rect><rect fill="#27eaa9" height="4" rx="1" ry="1" width="4" x="15.4" y="25.1"><title>2021-01-05 6 times</title></rect><rect fill="#27eaa9" height="4" rx="1" ry="1" width="4" x="15.4" y="30.5"><title>2021-01-06 6 times</title></rect><rect fill="#27eaa9" height="4" rx="1" ry="1" width="4" x="15.4" y="35.9"><title>2021-01-07 6 times</title></rect><rect fill="#27eaa9" height="4" rx="1" ry="1" width="4" x="15.4" y="41.300000000000004"><title>2021-01-08 9 times</title></rect><rect fill="#27eaa9" height="4" rx="1" ry="1" width="4" x="15.4" y="46.699999999999996"><title>2021-01-09 5 times</title></rect><rect fill="#4DD2FF" height="4" rx="1" ry="1" width="4" x="15.4" y="52.1"><title>2021-01-10 3 times</title></rect><rect fill="#27eaa9" height="4" rx="1" ry="1" width="4" x="20.8" y="19.7"><title>2021-01-11 4 times</title></rect><rect fill="#27eaa9" height="4" rx="1" ry="1" width="4" x="20.8" y="25.1"><title>2021-01-12 10 times</title></rect><rect fill="#27eaa9" height="4" rx="1" ry="1" width="4" x="20.8" y="30.5"><title>2021-01-13 11 times</title></rect><rect fill="#27eaa9" height="4" rx="1" ry="1" width="4" x="20.8" y="35.9"><title>2021-01-14 10 times</title></rect><rect fill="#27eaa9" height="4" rx="1" ry="1" width="4" x="20.8" y="41.300000000000004"><title>2021-01-15 10 times</title></rect><rect fill="#27eaa9" height="4" rx="1" ry="1" width="4" x="20.8" y="46.699999999999996"><title>2021-01-16 7 times</title></rect><rect fill="#4DD2FF" height="4" rx="1" ry="1" width="4" x="20.8" y="52.1"><title>2021-01-17 3 times</title></rect><rect fill="#27eaa9" height="4" rx="1" ry="1" width="4" x="26.200000000000003" y="19.7"><title>2021-01-18 7 times</title></rect><rect fill="#27eaa9" height="4" rx="1" ry="1" width="4" x="26.200000000000003" y="25.1"><title>2021-01-19 5 times</title></rect><rect fill="#4DD2FF" height="4" rx="1" ry="1" width="4" x="26.200000000000003" y="30.5"><title>2021-01-20 2 times</title></rect><rect fill="#4DD2FF" height="4" rx="1" ry="1" width="4" x="26.200000000000003" y="35.9"><title>2021-01-21 2 times</title></rect><rect fill="#27eaa9" height="4" rx="1" ry="1" width="4" x="26.200000000000003" y="41.300000000000004"><title>2021-01-22 5 times</title></rect><rect fill="#a0eba8" height="4" rx="1" ry="1" width="4" x="26.200000000000003" y="46.699999999999996"><title>2021-01-23 1 times</title></rect><rect fill="#a0eba8" height="4" rx="1" ry="1" width="4" x="26.200000000000003" y="52.1"><title>2021-01-24 1 times</title></rect><rect fill="#27eaa9" height="4" rx="1" ry="1" width="4" x="31.6" y="19.7"><title>2021-01-25 4 times</title></rect><rect fill="#4DD2FF" height="4" rx="1" ry="1" width="4" x="31.6" y="25.1"><title>2021-01-26 3 times</title></rect><rect fill="#27eaa9" height="4" rx="1" ry="1" width="4" x="31.6" y="30.5"><title>2021-01-27 4 times</title></rect><rect fill="#4DD2FF" height="4" rx="1" ry="1" width="4" x="31.6" y="35.9"><title>2021-01-28 3 times</title></rect><rect fill="#27eaa9" height="4" rx="1" ry="1" width="4" x="31.6" y="41.300000000000004"><title>2021-01-29 7 times</title></rect><rect fill="#27eaa9" height="4" rx="1" ry="1" width="4" x="31.6" y="46.699999999999996"><title>2021-01-30 7 times</title></rect><rect fill="#a0eba8" height="4" rx="1" ry="1" width="4" x="31.6" y="52.1"><title>2021-01-31 1 times</title></rect><text fill="#FFFFFF" style="font-size:2.5px; font-family:Arial" x="37.0" y="18.3">Feb</text><rect fill="#4DD2FF" height="4" rx="1" ry="1" width="4" x="37.0" y="19.7"><title>2021-02-01 3 times</title></rect><rect fill="#4DD2FF" height="4" rx="1" ry="1" width="4" x="37.0" y="25.1"><title>2021-02-02 2 times</title></rect><rect fill="#4DD2FF" height="4" rx="1" ry="1" width="4" x="37.0" y="30.5"><title>2021-02-03 2 times</title></rect><rect fill="#4DD2FF" height="4" rx="1" ry="1" width="4" x="37.0" y="35.9"><title>2021-02-04 3 times</title></rect><rect fill="#27eaa9" height="4" rx="1" ry="1" width="4" x="37.0" y="41.300000000000004"><title>2021-02-05 6 times</title></rect><rect fill="#4DD2FF" height="4" rx="1" ry="1" width="4" x="37.0" y="46.699999999999996"><title>2021-02-06 3 times</title></rect><rect fill="#a0eba8" height="4" rx="1" ry="1" width="4" x="37.0" y="52.1"><title>2021-02-07 1 times</title></rect><rect fill="#4DD2FF" height="4" rx="1" ry="1" width="4" x="42.4" y="19.7"><title>2021-02-08 2 times</title></rect><rect fill="#27eaa9" height="4" rx="1" ry="1" width="4" x="42.4" y="25.1"><title>2021-02-09 7 times</title></rect><rect fill="#4DD2FF" height="4" rx="1" ry="1" width="4" x="42.4" y="30.5"><title>2021-02-10 2 times</title></rect><rect fill="#a0eba8" height="4" rx="1" ry="1" width="4" x="42.4" y="35.9"><title>2021-02-11 1 times</title></rect><rect fill="#4DD2FF" height="4" rx="1" ry="1" width="4" x="42.4" y="41.300000000000004"><title>2021-02-12 3 times</title></rect><rect fill="#4DD2FF" height="4" rx="1" ry="1" width="4" x="42.4" y="46.699999999999996"><title>2021-02-13 2 times</title></rect><rect fill="#EBEDF0" height="4" rx="1" ry="1" width="4" x="42.4" y="52.1"><title>2021-02-14</title></rect><rect fill="#a0eba8" height="4" rx="1" ry="1" width="4" x="47.8" y="19.7"><title>2021-02-15 1 times</title></rect><rect fill="#a0eba8" height="4" rx="1" ry="1" width="4" x="47.8" y="25.1"><title>2021-02-16 1 times</title></rect><rect fill="#a0eba8" height="4" rx="1" ry="1" width="4" x="47.8" y="30.5"><title>2021-02-17 1 times</title></rect><rect fill="#a0eba8" height="4" rx="1" ry="1" width="4" x="47.8" y="35.9"><title>2021-02-18 1 times</title></rect><rect fill="#a0eba8" height="4" rx="1" ry="1" width="4" x="47.8" y="41.300000000000004"><title>2021-02-19 1 times</title></rect><rect fill="#27eaa9" height="4" rx="1" ry="1" width="4" x="47.8" y="46.699999999999996"><title>2021-02-20 4 times</title></rect><rect fill="#4DD2FF" height="4" rx="1" ry="1" width="4" x="47.8" y="52.1"><title>2021-02-21 3 times</title></rect><rect fill="#27eaa9" height="4" rx="1" ry="1" width="4" x="53.199999999999996" y="19.7"><title>2021-02-22 5 times</title></rect><rect fill="#27eaa9" height="4" rx="1" ry="1" width="4" x="53.199999999999996" y="25.1"><title>2021-02-23 5 times</title></rect><rect fill="#27eaa9" height="4" rx="1" ry="1" width="4" x="53.199999999999996" y="30.5"><title>2021-02-24 8 times</title></rect><rect fill="#27eaa9" height="4" rx="1" ry="1" width="4" x="53.199999999999996" y="35.9"><title>2021-02-25 9 times</title></rect><rect fill="#27eaa9" height="4" rx="1" ry="1" width="4" x="53.199999999999996" y="41.300000000000004"><title>2021-02-26 8 times</title></rect><rect fill="#EBEDF0" height="4" rx="1" ry="1" width="4" x="53.199999999999996" y="46.699999999999996"><title>2021-02-27</title></rect><rect fill="#a0eba8" height="4" rx="1" ry="1" width="4" x="53.199999999999996" y="52.1"><title>2021-02-28 1 times</title></rect><text fill="#FFFFFF" style="font-size:2.5px; font-family:Arial" x="58.599999999999994" y="18.3">Mar</text><rect fill="#27eaa9" height="4" rx="1" ry="1" width="4" x="58.599999999999994" y="19.7"><title>2021-03-01 6 times</title></rect><rect fill="#4DD2FF" height="4" rx="1" ry="1" width="4" x="58.599999999999994" y="25.1"><title>2021-03-02 3 times</title></rect><rect fill="#27eaa9" height="4" rx="1" ry="1" width="4" x="58.599999999999994" y="30.5"><title>2021-03-03 7 times</title></rect><rect fill="#27eaa9" height="4" rx="1" ry="1" width="4" x="58.599999999999994" y="35.9"><title>2021-03-04 6 times</title></rect><rect fill="#27eaa9" height="4" rx="1" ry="1" width="4" x="58.599999999999994" y="41.300000000000004"><title>2021-03-05 7 times</title></rect><rect fill="#27eaa9" height="4" rx="1" ry="1" width="4" x="58.599999999999994" y="46.699999999999996"><title>2021-03-06 10 times</title></rect><rect fill="#a0eba8" height="4" rx="1" ry="1" width="4" x="58.599999999999994" y="52.1"><title>2021-03-07 1 times</title></rect><rect fill="#4DD2FF" height="4" rx="1" ry="1" width="4" x="63.99999999999999" y="19.7"><title>2021-03-08 3 times</title></rect><rect fill="#27eaa9" height="4" rx="1" ry="1" width="4" x="63.99999999999999" y="25.1"><title>2021-03-09 4 times</title></rect><rect fill="#27eaa9" height="4" rx="1" ry="1" width="4" x="63.99999999999999" y="30.5"><title>2021-03-10 5 times</title></rect><rect fill="#27eaa9" height="4" rx="1" ry="1" width="4" x="63.99999999999999" y="35.9"><title>2021-03-11 6 times</title></rect><rect fill="#27eaa9" height="4" rx="1" ry="1" width="4" x="63.99999999999999" y="41.300000000000004"><title>2021-03-12 4 times</title></rect><rect fill="#a0eba8" height="4" rx="1" ry="1" width="4" x="63.99999999999999" y="46.699999999999996"><title>2021-03-13 1 times</title></rect><rect fill="#EBEDF0" height="4" rx="1" ry="1" width="4" x="63.99999999999999" y="52.1"><title>2021-03-14</title></rect><rect fill="#a0eba8" height="4" rx="1" ry="1" width="4" x="69.39999999999999" y="19.7"><title>2021-03-15 1 times</title></rect><rect fill="#4DD2FF" height="4" rx="1" ry="1" width="4" x="69.39999999999999" y="25.1"><title>2021-03-16 2 times</title></rect><rect fill="#27eaa9" height="4" rx="1" ry="1" width="4" x="69.39999999999999" y="30.5"><title>2021-03-17 7 times</title></rect><rect fill="#27eaa9" height="4" rx="1" ry="1" width="4" x="69.39999999999999" y="35.9"><title>2021-03-18 5 times</title></rect><rect fill="#4DD2FF" height="4" rx="1" ry="1" width="4" x="69.39999999999999" y="41.300000000000004"><title>2021-03-19 3 times</title></rect><rect fill="#a0eba8" height="4" rx="1" ry="1" width="4" x="69.39999999999999" y="46.699999999999996"><title>2021-03-20 1 times</title></rect><rect fill="#a0eba8" height="4" rx="1" ry="1" width="4" x="69.39999999999999" y="52.1"><title>2021-03-21 1 times</title></rect><rect fill="#27eaa9" height="4" rx="1" ry="1" width="4" x="74.8" y="19.7"><title>2021-03-22 4 times</title></rect><rect fill="#27eaa9" height="4" rx="1" ry="1" width="4" x="74.8" y="25.1"><title>2021-03-23 4 times</title></rect><rect fill="#27eaa9" height="4" rx="1" ry="1" width="4" x="74.8" y="30.5"><title>2021-03-24 5 times</title></rect><rect fill="#4DD2FF" height="4" rx="1" ry="1" width="4" x="74.8" y="35.9"><title>2021-03-25 2 times</title></rect><rect fill="#4DD2FF" height="4" rx="1" ry="1" width="4" x="74.8" y="41.300000000000004"><title>2021-03-26 2 times</title></rect><rect fill="#a0eba8" height="4" rx="1" ry="1" width="4" x="74.8" y="46.699999999999996"><title>2021-03-27 1 times</title></rect><rect fill="#EBEDF0" height="4" rx="1" ry="1" width="4" x="74.8" y="52.1"><title>2021-03-28</title></rect><rect fill="#EBEDF0" height="4" rx="1" ry="1" width="4" x="80.2" y="19.7"><title>2021-03-29</title></rect><rect fill="#a0eba8" height="4" rx="1" ry="1" width="4" x="80.2" y="25.1"><title>2021-03-30 1 times</title></rect><rect fill="#a0eba8" height="4" rx="1" ry="1" width="4" x="80.2" y="30.5"><title>2021-03-31 1 times</title></rect><rect fill="#a0eba8" height="4" rx="1" ry="1" width="4" x="80.2" y="35.9"><title>2021-04-01 1 times</title></rect><rect fill="#4DD2FF" height="4" rx="1" ry="1" width="4" x="80.2" y="41.300000000000004"><title>2021-04-02 2 times</title></rect><rect fill="#EBEDF0" height="4" rx="1" ry="1" width="4" x="80.2" y="46.699999999999996"><title>2021-04-03</title></rect><rect fill="#a0eba8" height="4" rx="1" ry="1" width="4" x="80.2" y="52.1"><title>2021-04-04 1 times</title></rect><text fill="#FFFFFF" style="font-size:2.5px; font-family:Arial" x="85.60000000000001" y="18.3">Apr</text><rect fill="#4DD2FF" height="4" rx="1" ry="1" width="4" x="85.60000000000001" y="19.7"><title>2021-04-05 3 times</title></rect><rect fill="#4DD2FF" height="4" rx="1" ry="1" width="4" x="85.60000000000001" y="25.1"><title>2021-04-06 3 times</title></rect><rect fill="#4DD2FF" height="4" rx="1" ry="1" width="4" x="85.60000000000001" y="30.5"><title>2021-04-07 2 times</title></rect><rect fill="#4DD2FF" height="4" rx="1" ry="1" width="4" x="85.60000000000001" y="35.9"><title>2021-04-08 3 times</title></rect><rect fill="#4DD2FF" height="4" rx="1" ry="1" width="4" x="85.60000000000001" y="41.300000000000004"><title>2021-04-09 3 times</title></rect><rect fill="#EBEDF0" height="4" rx="1" ry="1" width="4" x="85.60000000000001" y="46.699999999999996"><title>2021-04-10</title></rect><rect fill="#a0eba8" height="4" rx="1" ry="1" width="4" x="85.60000000000001" y="52.1"><title>2021-04-11 1 times</title></rect><rect fill="#27eaa9" height="4" rx="1" ry="1" width="4" x="91.00000000000001" y="19.7"><title>2021-04-12 4 times</title></rect><rect fill="#4DD2FF" height="4" rx="1" ry="1" width="4" x="91.00000000000001" y="25.1"><title>2021-04-13 3 times</title></rect><rect fill="#4DD2FF" height="4" rx="1" ry="1" width="4" x="91.00000000000001" y="30.5"><title>2021-04-14 2 times</title></rect><rect fill="#EBEDF0" height="4" rx="1" ry="1" width="4" x="91.00000000000001" y="35.9"><title>2021-04-15</title></rect><rect fill="#4DD2FF" height="4" rx="1" ry="1" width="4" x="91.00000000000001" y="41.300000000000004"><title>2021-04-16 3 times</title></rect><rect fill="#4DD2FF" height="4" rx="1" ry="1" width="4" x="91.00000000000001" y="46.699999999999996"><title>2021-04-17 2 times</title></rect><rect fill="#a0eba8" height="4" rx="1" ry="1" width="4" x="91.00000000000001" y="52.1"><title>2021-04-18 1 times</title></rect><rect fill="#4DD2FF" height="4" rx="1" ry="1" width="4" x="96.40000000000002" y="19.7"><title>2021-04-19 3 times</title></rect><rect fill="#EBEDF0" height="4" rx="1" ry="1" width="4" x="96.40000000000002" y="25.1"><title>2021-04-20</title></rect><rect fill="#4DD2FF" height="4" rx="1" ry="1" width="4" x="96.40000000000002" y="30.5"><title>2021-04-21 2 times</title></rect><rect fill="#EBEDF0" height="4" rx="1" ry="1" width="4" x="96.40000000000002" y="35.9"><title>2021-04-22</title></rect><rect fill="#a0eba8" height="4" rx="1" ry="1" width="4" x="96.40000000000002" y="41.300000000000004"><title>2021-04-23 1 times</title></rect><rect fill="#a0eba8" height="4" rx="1" ry="1" width="4" x="96.40000000000002" y="46.699999999999996"><title>2021-04-24 1 times</title></rect><rect fill="#EBEDF0" height="4" rx="1" ry="1" width="4" x="96.40000000000002" y="52.1"><title>2021-04-25</title></rect><rect fill="#4DD2FF" height="4" rx="1" ry="1" width="4" x="101.80000000000003" y="19.7"><title>2021-04-26 2 times</title></rect><rect fill="#a0eba8" height="4" rx="1" ry="1" width="4" x="101.80000000000003" y="25.1"><title>2021-04-27 1 times</title></rect><rect fill="#a0eba8" height="4" rx="1" ry="1" width="4" x="101.80000000000003" y="30.5"><title>2021-04-28 1 times</title></rect><rect fill="#4DD2FF" height="4" rx="1" ry="1" width="4" x="101.80000000000003" y="35.9"><title>2021-04-29 2 times</title></rect><rect fill="#EBEDF0" height="4" rx="1" ry="1" width="4" x="101.80000000000003" y="41.300000000000004"><title>2021-04-30</title></rect><rect fill="#EBEDF0" height="4" rx="1" ry="1" width="4" x="101.80000000000003" y="46.699999999999996"><title>2021-05-01</title></rect><rect fill="#a0eba8" height="4" rx="1" ry="1" width="4" x="101.80000000000003" y="52.1"><title>2021-05-02 1 times</title></rect><text fill="#FFFFFF" style="font-size:2.5px; font-family:Arial" x="107.20000000000003" y="18.3">May</text><rect fill="#4DD2FF" height="4" rx="1" ry="1" width="4" x="107.20000000000003" y="19.7"><title>2021-05-03 2 times</title></rect><rect fill="#a0eba8" height="4" rx="1" ry="1" width="4" x="107.20000000000003" y="25.1"><title>2021-05-04 1 times</title></rect><rect fill="#4DD2FF" height="4" rx="1" ry="1" width="4" x="107.20000000000003" y="30.5"><title>2021-05-05 2 times</title></rect><rect fill="#a0eba8" height="4" rx="1" ry="1" width="4" x="107.20000000000003" y="35.9"><title>2021-05-06 1 times</title></rect><rect fill="#a0eba8" height="4" rx="1" ry="1" width="4" x="107.20000000000003" y="41.300000000000004"><title>2021-05-07 1 times</title></rect><rect fill="#4DD2FF" height="4" rx="1" ry="1" width="4" x="107.20000000000003" y="46.699999999999996"><title>2021-05-08 3 times</title></rect><rect fill="#a0eba8" height="4" rx="1" ry="1" width="4" x="107.20000000000003" y="52.1"><title>2021-05-09 1 times</title></rect><rect fill="#a0eba8" height="4" rx="1" ry="1" width="4" x="112.60000000000004" y="19.7"><title>2021-05-10 1 times</title></rect><rect fill="#4DD2FF" height="4" rx="1" ry="1" width="4" x="112.60000000000004" y="25.1"><title>2021-05-11 2 times</title></rect><rect fill="#EBEDF0" height="4" rx="1" ry="1" width="4" x="112.60000000000004" y="30.5"><title>2021-05-12</title></rect><rect fill="#4DD2FF" height="4" rx="1" ry="1" width="4" x="112.60000000000004" y="35.9"><title>2021-05-13 2 times</title></rect><rect fill="#a0eba8" height="4" rx="1" ry="1" width="4" x="112.60000000000004" y="41.300000000000004"><title>2021-05-14 1 times</title></rect><rect fill="#a0eba8" height="4" rx="1" ry="1" width="4" x="112.60000000000004" y="46.699999999999996"><title>2021-05-15 1 times</title></rect><rect fill="#a0eba8" height="4" rx="1" ry="1" width="4" x="112.60000000000004" y="52.1"><title>2021-05-16 1 times</title></rect><rect fill="#a0eba8" height="4" rx="1" ry="1" width="4" x="118.00000000000004" y="19.7"><title>2021-05-17 1 times</title></rect><rect fill="#a0eba8" height="4" rx="1" ry="1" width="4" x="118.00000000000004" y="25.1"><title>2021-05-18 1 times</title></rect><rect fill="#EBEDF0" height="4" rx="1" ry="1" width="4" x="118.00000000000004" y="30.5"><title>2021-05-19</title></rect><rect fill="#a0eba8" height="4" rx="1" ry="1" width="4" x="118.00000000000004" y="35.9"><title>2021-05-20 1 times</title></rect><rect fill="#4DD2FF" height="4" rx="1" ry="1" width="4" x="118.00000000000004" y="41.300000000000004"><title>2021-05-21 2 times</title></rect><rect fill="#EBEDF0" height="4" rx="1" ry="1" width="4" x="118.00000000000004" y="46.699999999999996"><title>2021-05-22</title></rect><rect fill="#a0eba8" height="4" rx="1" ry="1" width="4" x="118.00000000000004" y="52.1"><title>2021-05-23 1 times</title></rect><rect fill="#EBEDF0" height="4" rx="1" ry="1" width="4" x="123.40000000000005" y="19.7"><title>2021-05-24</title></rect><rect fill="#a0eba8" height="4" rx="1" ry="1" width="4" x="123.40000000000005" y="25.1"><title>2021-05-25 1 times</title></rect><rect fill="#a0eba8" height="4" rx="1" ry="1" width="4" x="123.40000000000005" y="30.5"><title>2021-05-26 1 times</title></rect><rect fill="#4DD2FF" height="4" rx="1" ry="1" width="4" x="123.40000000000005" y="35.9"><title>2021-05-27 3 times</title></rect><rect fill="#a0eba8" height="4" rx="1" ry="1" width="4" x="123.40000000000005" y="41.300000000000004"><title>2021-05-28 1 times</title></rect><rect fill="#a0eba8" height="4" rx="1" ry="1" width="4" x="123.40000000000005" y="46.699999999999996"><title>2021-05-29 1 times</title></rect><rect fill="#EBEDF0" height="4" rx="1" ry="1" width="4" x="123.40000000000005" y="52.1"><title>2021-05-30</title></rect><rect fill="#4DD2FF" height="4" rx="1" ry="1" width="4" x="128.80000000000004" y="19.7"><title>2021-05-31 2 times</title></rect><rect fill="#a0eba8" height="4" rx="1" ry="1" width="4" x="128.80000000000004" y="25.1"><title>2021-06-01 1 times</title></rect><rect fill="#a0eba8" height="4" rx="1" ry="1" width="4" x="128.80000000000004" y="30.5"><title>2021-06-02 1 times</title></rect><rect fill="#a0eba8" height="4" rx="1" ry="1" width="4" x="128.80000000000004" y="35.9"><title>2021-06-03 1 times</title></rect><rect fill="#4DD2FF" height="4" rx="1" ry="1" width="4" x="128.80000000000004" y="41.300000000000004"><title>2021-06-04 2 times</title></rect><rect fill="#EBEDF0" height="4" rx="1" ry="1" width="4" x="128.80000000000004" y="46.699999999999996"><title>2021-06-05</title></rect><rect fill="#a0eba8" height="4" rx="1" ry="1" width="4" x="128.80000000000004" y="52.1"><title>2021-06-06 1 times</title></rect><text fill="#FFFFFF" style="font-size:2.5px; font-family:Arial" x="134.20000000000005" y="18.3">Jun</text><rect fill="#EBEDF0" height="4" rx="1" ry="1" width="4" x="134.20000000000005" y="19.7"><title>2021-06-07</title></rect><rect fill="#4DD2FF" height="4" rx="1" ry="1" width="4" x="134.20000000000005" y="25.1"><title>2021-06-08 2 times</title></rect><rect fill="#EBEDF0" height="4" rx="1" ry="1" width="4" x="134.20000000000005" y="30.5"><title>2021-06-09</title></rect><rect fill="#EBEDF0" height="4" rx="1" ry="1" width="4" x="134.20000000000005" y="35.9"><title>2021-06-10</title></rect><rect fill="#EBEDF0" height="4" rx="1" ry="1" width="4" x="134.20000000000005" y="41.300000000000004"><title>2021-06-11</title></rect><rect fill="#a0eba8" height="4" rx="1" ry="1" width="4" x="134.20000000000005" y="46.699999999999996"><title>2021-06-12 1 times</title></rect><rect fill="#a0eba8" height="4" rx="1" ry="1" width="4" x="134.20000000000005" y="52.1"><title>2021-06-13 1 times</title></rect><rect fill="#27eaa9" height="4" rx="1" ry="1" width="4" x="139.60000000000005" y="19.7"><title>2021-06-14 4 times</title></rect><rect fill="#EBEDF0" height="4" rx="1" ry="1" width="4" x="139.60000000000005" y="25.1"><title>2021-06-15</title></rect><rect fill="#4DD2FF" height="4" rx="1" ry="1" width="4" x="139.60000000000005" y="30.5"><title>2021-06-16 2 times</title></rect><rect fill="#a0eba8" height="4" rx="1" ry="1" width="4" x="139.60000000000005" y="35.9"><title>2021-06-17 1 times</title></rect><rect fill="#4DD2FF" height="4" rx="1" ry="1" width="4" x="139.60000000000005" y="41.300000000000004"><title>2021-06-18 2 times</title></rect><rect fill="#4DD2FF" height="4" rx="1" ry="1" width="4" x="139.60000000000005" y="46.699999999999996"><title>2021-06-19 2 times</title></rect><rect fill="#4DD2FF" height="4" rx="1" ry="1" width="4" x="139.60000000000005" y="52.1"><title>2021-06-20 2 times</title></rect><rect fill="#EBEDF0" height="4" rx="1" ry="1" width="4" x="145.00000000000006" y="19.7"><title>2021-06-21</title></rect><rect fill="#a0eba8" height="4" rx="1" ry="1" width="4" x="145.00000000000006" y="25.1"><title>2021-06-22 1 times</title></rect><rect fill="#a0eba8" height="4" rx="1" ry="1" width="4" x="145.00000000000006" y="30.5"><title>2021-06-23 1 times</title></rect><rect fill="#4DD2FF" height="4" rx="1" ry="1" width="4" x="145.00000000000006" y="35.9"><title>2021-06-24 2 times</title></rect><rect fill="#a0eba8" height="4" rx="1" ry="1" width="4" x="145.00000000000006" y="41.300000000000004"><title>2021-06-25 1 times</title></rect><rect fill="#EBEDF0" height="4" rx="1" ry="1" width="4" x="145.00000000000006" y="46.699999999999996"><title>2021-06-26</title></rect><rect fill="#4DD2FF" height="4" rx="1" ry="1" width="4" x="145.00000000000006" y="52.1"><title>2021-06-27 2 times</title></rect><rect fill="#a0eba8" height="4" rx="1" ry="1" width="4" x="150.40000000000006" y="19.7"><title>2021-06-28 1 times</title></rect><rect fill="#a0eba8" height="4" rx="1" ry="1" width="4" x="150.40000000000006" y="25.1"><title>2021-06-29 1 times</title></rect><rect fill="#4DD2FF" height="4" rx="1" ry="1" width="4" x="150.40000000000006" y="30.5"><title>2021-06-30 2 times</title></rect><rect fill="#EBEDF0" height="4" rx="1" ry="1" width="4" x="150.40000000000006" y="35.9"><title>2021-07-01</title></rect><rect fill="#a0eba8" height="4" rx="1" ry="1" width="4" x="150.40000000000006" y="41.300000000000004"><title>2021-07-02 1 times</title></rect><rect fill="#EBEDF0" height="4" rx="1" ry="1" width="4" x="150.40000000000006" y="46.699999999999996"><title>2021-07-03</title></rect><rect fill="#EBEDF0" height="4" rx="1" ry="1" width="4" x="150.40000000000006" y="52.1"><title>2021-07-04</title></rect><text fill="#FFFFFF" style="font-size:2.5px; font-family:Arial" x="155.80000000000007" y="18.3">Jul</text><rect fill="#a0eba8" height="4" rx="1" ry="1" width="4" x="155.80000000000007" y="19.7"><title>2021-07-05 1 times</title></rect><rect fill="#4DD2FF" height="4" rx="1" ry="1" width="4" x="155.80000000000007" y="25.1"><title>2021-07-06 2 times</title></rect><rect fill="#a0eba8" height="4" rx="1" ry="1" width="4" x="155.80000000000007" y="30.5"><title>2021-07-07 1 times</title></rect><rect fill="#27eaa9" height="4" rx="1" ry="1" width="4" x="155.80000000000007" y="35.9"><title>2021-07-08 4 times</title></rect><rect fill="#a0eba8" height="4" rx="1" ry="1" width="4" x="155.80000000000007" y="41.300000000000004"><title>2021-07-09 1 times</title></rect><rect fill="#a0eba8" height="4" rx="1" ry="1" width="4" x="155.80000000000007" y="46.699999999999996"><title>2021-07-10 1 times</title></rect><rect fill="#a0eba8" height="4" rx="1" ry="1" width="4" x="155.80000000000007" y="52.1"><title>2021-07-11 1 times</title></rect><rect fill="#EBEDF0" height="4" rx="1" ry="1" width="4" x="161.20000000000007" y="19.7"><title>2021-07-12</title></rect><rect fill="#a0eba8" height="4" rx="1" ry="1" width="4" x="161.20000000000007" y="25.1"><title>2021-07-13 1 times</title></rect><rect fill="#a0eba8" height="4" rx="1" ry="1" width="4" x="161.20000000000007" y="30.5"><title>2021-07-14 1 times</title></rect><rect fill="#EBEDF0" height="4" rx="1" ry="1" width="4" x="161.20000000000007" y="35.9"><title>2021-07-15</title></rect><rect fill="#a0eba8" height="4" rx="1" ry="1" width="4" x="161.20000000000007" y="41.300000000000004"><title>2021-07-16 1 times</title></rect><rect fill="#a0eba8" height="4" rx="1" ry="1" width="4" x="161.20000000000007" y="46.699999999999996"><title>2021-07-17 1 times</title></rect><rect fill="#a0eba8" height="4" rx="1" ry="1" width="4" x="161.20000000000007" y="52.1"><title>2021-07-18 1 times</title></rect><rect fill="#EBEDF0" height="4" rx="1" ry="1" width="4" x="166.60000000000008" y="19.7"><title>2021-07-19</title></rect><rect fill="#a0eba8" height="4" rx="1" ry="1" width="4" x="166.60000000000008" y="25.1"><title>2021-07-20 1 times</title></rect><rect fill="#27eaa9" height="4" rx="1" ry="1" width="4" x="166.60000000000008" y="30.5"><title>2021-07-21 4 times</title></rect><rect fill="#EBEDF0" height="4" rx="1" ry="1" width="4" x="166.60000000000008" y="35.9"><title>2021-07-22</title></rect><rect fill="#a0eba8" height="4" rx="1" ry="1" width="4" x="166.60000000000008" y="41.300000000000004"><title>2021-07-23 1 times</title></rect><rect fill="#a0eba8" height="4" rx="1" ry="1" width="4" x="166.60000000000008" y="46.699999999999996"><title>2021-07-24 1 times</title></rect><rect fill="#EBEDF0" height="4" rx="1" ry="1" width="4" x="166.60000000000008" y="52.1"><title>2021-07-25</title></rect><rect fill="#a0eba8" height="4" rx="1" ry="1" width="4" x="172.00000000000009" y="19.7"><title>2021-07-26 1 times</title></rect><rect fill="#4DD2FF" height="4" rx="1" ry="1" width="4" x="172.00000000000009" y="25.1"><title>2021-07-27 2 times</title></rect><rect fill="#a0eba8" height="4" rx="1" ry="1" width="4" x="172.00000000000009" y="30.5"><title>2021-07-28 1 times</title></rect><rect fill="#4DD2FF" height="4" rx="1" ry="1" width="4" x="172.00000000000009" y="35.9"><title>2021-07-29 2 times</title></rect><rect fill="#a0eba8" height="4" rx="1" ry="1" width="4" x="172.00000000000009" y="41.300000000000004"><title>2021-07-30 1 times</title></rect><rect fill="#a0eba8" height="4" rx="1" ry="1" width="4" x="172.00000000000009" y="46.699999999999996"><title>2021-07-31 1 times</title></rect><rect fill="#EBEDF0" height="4" rx="1" ry="1" width="4" x="172.00000000000009" y="52.1"><title>2021-08-01</title></rect><text fill="#FFFFFF" style="font-size:2.5px; font-family:Arial" x="177.4000000000001" y="18.3">Aug</text><rect fill="#a0eba8" height="4" rx="1" ry="1" width="4" x="177.4000000000001" y="19.7"><title>2021-08-02 1 times</title></rect><rect fill="#a0eba8" height="4" rx="1" ry="1" width="4" x="177.4000000000001" y="25.1"><title>2021-08-03 1 times</title></rect><rect fill="#4DD2FF" height="4" rx="1" ry="1" width="4" x="177.4000000000001" y="30.5"><title>2021-08-04 3 times</title></rect><rect fill="#a0eba8" height="4" rx="1" ry="1" width="4" x="177.4000000000001" y="35.9"><title>2021-08-05 1 times</title></rect><rect fill="#a0eba8" height="4" rx="1" ry="1" width="4" x="177.4000000000001" y="41.300000000000004"><title>2021-08-06 1 times</title></rect><rect fill="#EBEDF0" height="4" rx="1" ry="1" width="4" x="177.4000000000001" y="46.699999999999996"><title>2021-08-07</title></rect><rect fill="#4DD2FF" height="4" rx="1" ry="1" width="4" x="177.4000000000001" y="52.1"><title>2021-08-08 2 times</title></rect><rect fill="#4DD2FF" height="4" rx="1" ry="1" width="4" x="182.8000000000001" y="19.7"><title>2021-08-09 3 times</title></rect><rect fill="#a0eba8" height="4" rx="1" ry="1" width="4" x="182.8000000000001" y="25.1"><title>2021-08-10 1 times</title></rect><rect fill="#EBEDF0" height="4" rx="1" ry="1" width="4" x="182.8000000000001" y="30.5"><title>2021-08-11</title></rect><rect fill="#a0eba8" height="4" rx="1" ry="1" width="4" x="182.8000000000001" y="35.9"><title>2021-08-12 1 times</title></rect><rect fill="#EBEDF0" height="4" rx="1" ry="1" width="4" x="182.8000000000001" y="41.300000000000004"><title>2021-08-13</title></rect><rect fill="#EBEDF0" height="4" rx="1" ry="1" width="4" x="182.8000000000001" y="46.699999999999996"><title>2021-08-14</title></rect><rect fill="#a0eba8" height="4" rx="1" ry="1" width="4" x="182.8000000000001" y="52.1"><title>2021-08-15 1 times</title></rect><rect fill="#a0eba8" height="4" rx="1" ry="1" width="4" x="188.2000000000001" y="19.7"><title>2021-08-16 1 times</title></rect><rect fill="#a0eba8" height="4" rx="1" ry="1" width="4" x="188.2000000000001" y="25.1"><title>2021-08-17 1 times</title></rect><rect fill="#4DD2FF" height="4" rx="1" ry="1" width="4" x="188.2000000000001" y="30.5"><title>2021-08-18 2 times</title></rect><rect fill="#a0eba8" height="4" rx="1" ry="1" width="4" x="188.2000000000001" y="35.9"><title>2021-08-19 1 times</title></rect><rect fill="#EBEDF0" height="4" rx="1" ry="1" width="4" x="188.2000000000001" y="41.300000000000004"><title>2021-08-20</title></rect><rect fill="#a0eba8" height="4" rx="1" ry="1" width="4" x="188.2000000000001" y="46.699999999999996"><title>2021-08-21 1 times</title></rect><rect fill="#a0eba8" height="4" rx="1" ry="1" width="4" x="188.2000000000001" y="52.1"><title>2021-08-22 1 times</title></rect><rect fill="#EBEDF0" height="4" rx="1" ry="1" width="4" x="193.6000000000001" y="19.7"><title>2021-08-23</title></rect><rect fill="#a0eba8" height="4" rx="1" ry="1" width="4" x="193.6000000000001" y="25.1"><title>2021-08-24 1 times</title></rect><rect fill="#4DD2FF" height="4" rx="1" ry="1" width="4" x="193.6000000000001" y="30.5"><title>2021-08-25 2 times</title></rect><rect fill="#a0eba8" height="4" rx="1" ry="1" width="4" x="193.6000000000001" y="35.9"><title>2021-08-26 1 times</title></rect><rect fill="#a0eba8" height="4" rx="1" ry="1" width="4" x="193.6000000000001" y="41.300000000000004"><title>2021-08-27 1 times</title></rect><rect fill="#a0eba8" height="4" rx="1" ry="1" width="4" x="193.6000000000001" y="46.699999999999996"><title>2021-08-28 1 times</title></rect><rect fill="#a0eba8" height="4" rx="1" ry="1" width="4" x="193.6000000000001" y="52.1"><title>2021-08-29 1 times</title></rect><rect fill="#a0eba8" height="4" rx="1" ry="1" width="4" x="199.0000000000001" y="19.7"><title>2021-08-30 1 times</title></rect><rect fill="#EBEDF0" height="4" rx="1" ry="1" width="4" x="199.0000000000001" y="25.1"><title>2021-08-31</title></rect><rect fill="#a0eba8" height="4" rx="1" ry="1" width="4" x="199.0000000000001" y="30.5"><title>2021-09-01 1 times</title></rect><rect fill="#a0eba8" height="4" rx="1" ry="1" width="4" x="199.0000000000001" y="35.9"><title>2021-09-02 1 times</title></rect><rect fill="#a0eba8" height="4" rx="1" ry="1" width="4" x="199.0000000000001" y="41.300000000000004"><title>2021-09-03 1 times</title></rect><rect fill="#a0eba8" height="4" rx="1" ry="1" width="4" x="199.0000000000001" y="46.699999999999996"><title>2021-09-04 1 times</title></rect><rect fill="#a0eba8" height="4" rx="1" ry="1" width="4" x="199.0000000000001" y="52.1"><title>2021-09-05 1 times</title></rect><text fill="#FFFFFF" style="font-size:2.5px; font-family:Arial" x="204.40000000000012" y="18.3">Sep</text><rect fill="#4DD2FF" height="4" rx="1" ry="1" width="4" x="204.40000000000012" y="19.7"><title>2021-09-06 2 times</title></rect><rect fill="#4DD2FF" height="4" rx="1" ry="1" width="4" x="204.40000000000012" y="25.1"><title>2021-09-07 2 times</title></rect><rect fill="#EBEDF0" height="4" rx="1" ry="1" width="4" x="204.40000000000012" y="30.5"><title>2021-09-08</title></rect><rect fill="#a0eba8" height="4" rx="1" ry="1" width="4" x="204.40000000000012" y="35.9"><title>2021-09-09 1 times</title></rect><rect fill="#27eaa9" height="4" rx="1" ry="1" width="4" x="204.40000000000012" y="41.300000000000004"><title>2021-09-10 4 times</title></rect><rect fill="#a0eba8" height="4" rx="1" ry="1" width="4" x="204.40000000000012" y="46.699999999999996"><title>2021-09-11 1 times</title></rect><rect fill="#EBEDF0" height="4" rx="1" ry="1" width="4" x="204.40000000000012" y="52.1"><title>2021-09-12</title></rect><rect fill="#a0eba8" height="4" rx="1" ry="1" width="4" x="209.80000000000013" y="19.7"><title>2021-09-13 1 times</title></rect><rect fill="#a0eba8" height="4" rx="1" ry="1" width="4" x="209.80000000000013" y="25.1"><title>2021-09-14 1 times</title></rect><rect fill="#27eaa9" height="4" rx="1" ry="1" width="4" x="209.80000000000013" y="30.5"><title>2021-09-15 4 times</title></rect><rect fill="#EBEDF0" height="4" rx="1" ry="1" width="4" x="209.80000000000013" y="35.9"><title>2021-09-16</title></rect><rect fill="#a0eba8" height="4" rx="1" ry="1" width="4" x="209.80000000000013" y="41.300000000000004"><title>2021-09-17 1 times</title></rect><rect fill="#4DD2FF" height="4" rx="1" ry="1" width="4" x="209.80000000000013" y="46.699999999999996"><title>2021-09-18 2 times</title></rect><rect fill="#4DD2FF" height="4" rx="1" ry="1" width="4" x="209.80000000000013" y="52.1"><title>2021-09-19 2 times</title></rect><rect fill="#EBEDF0" height="4" rx="1" ry="1" width="4" x="215.20000000000013" y="19.7"><title>2021-09-20</title></rect><rect fill="#EBEDF0" height="4" rx="1" ry="1" width="4" x="215.20000000000013" y="25.1"><title>2021-09-21</title></rect><rect fill="#a0eba8" height="4" rx="1" ry="1" width="4" x="215.20000000000013" y="30.5"><title>2021-09-22 1 times</title></rect><rect fill="#4DD2FF" height="4" rx="1" ry="1" width="4" x="215.20000000000013" y="35.9"><title>2021-09-23 3 times</title></rect><rect fill="#EBEDF0" height="4" rx="1" ry="1" width="4" x="215.20000000000013" y="41.300000000000004"><title>2021-09-24</title></rect><rect fill="#a0eba8" height="4" rx="1" ry="1" width="4" x="215.20000000000013" y="46.699999999999996"><title>2021-09-25 1 times</title></rect><rect fill="#a0eba8" height="4" rx="1" ry="1" width="4" x="215.20000000000013" y="52.1"><title>2021-09-26 1 times</title></rect><rect fill="#4DD2FF" height="4" rx="1" ry="1" width="4" x="220.60000000000014" y="19.7"><title>2021-09-27 2 times</title></rect><rect fill="#a0eba8" height="4" rx="1" ry="1" width="4" x="220.60000000000014" y="25.1"><title>2021-09-28 1 times</title></rect><rect fill="#a0eba8" height="4" rx="1" ry="1" width="4" x="220.60000000000014" y="30.5"><title>2021-09-29 1 times</title></rect><rect fill="#4DD2FF" height="4" rx="1" ry="1" width="4" x="220.60000000000014" y="35.9"><title>2021-09-30 3 times</title></rect><rect fill="#26b236" height="4" rx="1" ry="1" width="4" x="220.60000000000014" y="41.300000000000004"><title>2021-10-01 105 times</title></rect><rect fill="#26b236" height="4" rx="1" ry="1" width="4" x="220.60000000000014" y="46.699999999999996"><title>2021-10-02 159 times</title></rect><rect fill="#27eaa9" height="4" rx="1" ry="1" width="4" x="220.60000000000014" y="52.1"><title>2021-10-03 5 times</title></rect><text fill="#FFFFFF" style="font-size:2.5px; font-family:Arial" x="226.00000000000014" y="18.3">Oct</text><rect fill="#26b236" height="4" rx="1" ry="1" width="4" x="226.00000000000014" y="19.7"><title>2021-10-04 65 times</title></rect><rect fill="#26b236" height="4" rx="1" ry="1" width="4" x="226.00000000000014" y="25.1"><title>2021-10-05 67 times</title></rect><rect fill="#27eaa9" height="4" rx="1" ry="1" width="4" x="226.00000000000014" y="30.5"><title>2021-10-06 39 times</title></rect><rect fill="#26b236" height="4" rx="1" ry="1" width="4" x="226.00000000000014" y="35.9"><title>2021-10-07 113 times</title></rect><rect fill="#26b236" height="4" rx="1" ry="1" width="4" x="226.00000000000014" y="41.300000000000004"><title>2021-10-08 89 times</title></rect><rect fill="#26b236" height="4" rx="1" ry="1" width="4" x="226.00000000000014" y="46.699999999999996"><title>2021-10-09 201 times</title></rect><rect fill="#26b236" height="4" rx="1" ry="1" width="4" x="226.00000000000014" y="52.1"><title>2021-10-10 154 times</title></rect><rect fill="#26b236" height="4" rx="1" ry="1" width="4" x="231.40000000000015" y="19.7"><title>2021-10-11 125 times</title></rect><rect fill="#26b236" height="4" rx="1" ry="1" width="4" x="231.40000000000015" y="25.1"><title>2021-10-12 81 times</title></rect><rect fill="#26b236" height="4" rx="1" ry="1" width="4" x="231.40000000000015" y="30.5"><title>2021-10-13 300 times</title></rect><rect fill="#26b236" height="4" rx="1" ry="1" width="4" x="231.40000000000015" y="35.9"><title>2021-10-14 200 times</title></rect><rect fill="#26b236" height="4" rx="1" ry="1" width="4" x="231.40000000000015" y="41.300000000000004"><title>2021-10-15 127 times</title></rect><rect fill="#26b236" height="4" rx="1" ry="1" width="4" x="231.40000000000015" y="46.699999999999996"><title>2021-10-16 221 times</title></rect><rect fill="#26b236" height="4" rx="1" ry="1" width="4" x="231.40000000000015" y="52.1"><title>2021-10-17 173 times</title></rect><rect fill="#26b236" height="4" rx="1" ry="1" width="4" x="236.80000000000015" y="19.7"><title>2021-10-18 255 times</title></rect><rect fill="#26b236" height="4" rx="1" ry="1" width="4" x="236.80000000000015" y="25.1"><title>2021-10-19 380 times</title></rect><rect fill="#26b236" height="4" rx="1" ry="1" width="4" x="236.80000000000015" y="30.5"><title>2021-10-20 336 times</title></rect><rect fill="#26b236" height="4" rx="1" ry="1" width="4" x="236.80000000000015" y="35.9"><title>2021-10-21 233 times</title></rect><rect fill="#26b236" height="4" rx="1" ry="1" width="4" x="236.80000000000015" y="41.300000000000004"><title>2021-10-22 173 times</title></rect><rect fill="#26b236" height="4" rx="1" ry="1" width="4" x="236.80000000000015" y="46.699999999999996"><title>2021-10-23 79 times</title></rect><rect fill="#27eaa9" height="4" rx="1" ry="1" width="4" x="236.80000000000015" y="52.1"><title>2021-10-24 24 times</title></rect><rect fill="#26b236" height="4" rx="1" ry="1" width="4" x="242.20000000000016" y="19.7"><title>2021-10-25 215 times</title></rect><rect fill="#26b236" height="4" rx="1" ry="1" width="4" x="242.20000000000016" y="25.1"><title>2021-10-26 136 times</title></rect><rect fill="#26b236" height="4" rx="1" ry="1" width="4" x="242.20000000000016" y="30.5"><title>2021-10-27 213 times</title></rect><rect fill="#26b236" height="4" rx="1" ry="1" width="4" x="242.20000000000016" y="35.9"><title>2021-10-28 266 times</title></rect><rect fill="#26b236" height="4" rx="1" ry="1" width="4" x="242.20000000000016" y="41.300000000000004"><title>2021-10-29 214 times</title></rect><rect fill="#27eaa9" height="4" rx="1" ry="1" width="4" x="242.20000000000016" y="46.699999999999996"><title>2021-10-30 34 times</title></rect><rect fill="#27eaa9" height="4" rx="1" ry="1" width="4" x="242.20000000000016" y="52.1"><title>2021-10-31 62 times</title></rect><text fill="#FFFFFF" style="font-size:2.5px; font-family:Arial" x="247.60000000000016" y="18.3">Nov</text><rect fill="#26b236" height="4" rx="1" ry="1" width="4" x="247.60000000000016" y="19.7"><title>2021-11-01 121 times</title></rect><rect fill="#26b236" height="4" rx="1" ry="1" width="4" x="247.60000000000016" y="25.1"><title>2021-11-02 175 times</title></rect><rect fill="#26b236" height="4" rx="1" ry="1" width="4" x="247.60000000000016" y="30.5"><title>2021-11-03 543 times</title></rect><rect fill="#26b236" height="4" rx="1" ry="1" width="4" x="247.60000000000016" y="35.9"><title>2021-11-04 213 times</title></rect><rect fill="#26b236" height="4" rx="1" ry="1" width="4" x="247.60000000000016" y="41.300000000000004"><title>2021-11-05 157 times</title></rect><rect fill="#27eaa9" height="4" rx="1" ry="1" width="4" x="247.60000000000016" y="46.699999999999996"><title>2021-11-06 11 times</title></rect><rect fill="#27eaa9" height="4" rx="1" ry="1" width="4" x="247.60000000000016" y="52.1"><title>2021-11-07 54 times</title></rect><rect fill="#26b236" height="4" rx="1" ry="1" width="4" x="253.00000000000017" y="19.7"><title>2021-11-08 97 times</title></rect><rect fill="#26b236" height="4" rx="1" ry="1" width="4" x="253.00000000000017" y="25.1"><title>2021-11-09 90 times</title></rect><rect fill="#26b236" height="4" rx="1" ry="1" width="4" x="253.00000000000017" y="30.5"><title>2021-11-10 568 times</title></rect><rect fill="#26b236" height="4" rx="1" ry="1" width="4" x="253.00000000000017" y="35.9"><title>2021-11-11 228 times</title></rect><rect fill="#26b236" height="4" rx="1" ry="1" width="4" x="253.00000000000017" y="41.300000000000004"><title>2021-11-12 200 times</title></rect><rect fill="#27eaa9" height="4" rx="1" ry="1" width="4" x="253.00000000000017" y="46.699999999999996"><title>2021-11-13 59 times</title></rect><rect fill="#26b236" height="4" rx="1" ry="1" width="4" x="253.00000000000017" y="52.1"><title>2021-11-14 76 times</title></rect><rect fill="#26b236" height="4" rx="1" ry="1" width="4" x="258.40000000000015" y="19.7"><title>2021-11-15 212 times</title></rect><rect fill="#26b236" height="4" rx="1" ry="1" width="4" x="258.40000000000015" y="25.1"><title>2021-11-16 92 times</title></rect><rect fill="#26b236" height="4" rx="1" ry="1" width="4" x="258.40000000000015" y="30.5"><title>2021-11-17 154 times</title></rect><rect fill="#26b236" height="4" rx="1" ry="1" width="4" x="258.40000000000015" y="35.9"><title>2021-11-18 220 times</title></rect><rect fill="#26b236" height="4" rx="1" ry="1" width="4" x="258.40000000000015" y="41.300000000000004"><title>2021-11-19 255 times</title></rect><rect fill="#26b236" height="4" rx="1" ry="1" width="4" x="258.40000000000015" y="46.699999999999996"><title>2021-11-20 418 times</title></rect><rect fill="#27eaa9" height="4" rx="1" ry="1" width="4" x="258.40000000000015" y="52.1"><title>2021-11-21 7 times</title></rect><rect fill="#26b236" height="4" rx="1" ry="1" width="4" x="263.8000000000001" y="19.7"><title>2021-11-22 346 times</title></rect><rect fill="#26b236" height="4" rx="1" ry="1" width="4" x="263.8000000000001" y="25.1"><title>2021-11-23 123 times</title></rect><rect fill="#26b236" height="4" rx="1" ry="1" width="4" x="263.8000000000001" y="30.5"><title>2021-11-24 336 times</title></rect><rect fill="#26b236" height="4" rx="1" ry="1" width="4" x="263.8000000000001" y="35.9"><title>2021-11-25 144 times</title></rect><rect fill="#26b236" height="4" rx="1" ry="1" width="4" x="263.8000000000001" y="41.300000000000004"><title>2021-11-26 253 times</title></rect><rect fill="#27eaa9" height="4" rx="1" ry="1" width="4" x="263.8000000000001" y="46.699999999999996"><title>2021-11-27 35 times</title></rect><rect fill="#26b236" height="4" rx="1" ry="1" width="4" x="263.8000000000001" y="52.1"><title>2021-11-28 198 times</title></rect><rect fill="#26b236" height="4" rx="1" ry="1" width="4" x="269.2000000000001" y="19.7"><title>2021-11-29 181 times</title></rect><rect fill="#27eaa9" height="4" rx="1" ry="1" width="4" x="269.2000000000001" y="25.1"><title>2021-11-30 49 times</title></rect><rect fill="#26b236" height="4" rx="1" ry="1" width="4" x="269.2000000000001" y="30.5"><title>2021-12-01 85 times</title></rect><rect fill="#27eaa9" height="4" rx="1" ry="1" width="4" x="269.2000000000001" y="35.9"><title>2021-12-02 6 times</title></rect><rect fill="#EBEDF0" height="4" rx="1" ry="1" width="4" x="269.2000000000001" y="41.300000000000004"><title>2021-12-03</title></rect><rect fill="#EBEDF0" height="4" rx="1" ry="1" width="4" x="269.2000000000001" y="46.699999999999996"><title>2021-12-04</title></rect><rect fill="#EBEDF0" height="4" rx="1" ry="1" width="4" x="269.2000000000001" y="52.1"><title>2021-12-05</title></rect><text fill="#FFFFFF" style="font-size:2.5px; font-family:Arial" x="274.6000000000001" y="18.3">Dec</text><rect fill="#EBEDF0" height="4" rx="1" ry="1" width="4" x="274.6000000000001" y="19.7"><title>2021-12-06</title></rect><rect fill="#EBEDF0" height="4" rx="1" ry="1" width="4" x="274.6000000000001" y="25.1"><title>2021-12-07</title></rect><rect fill="#EBEDF0" height="4" rx="1" ry="1" width="4" x="274.6000000000001" y="30.5"><title>2021-12-08</title></rect><rect fill="#EBEDF0" height="4" rx="1" ry="1" width="4" x="274.6000000000001" y="35.9"><title>2021-12-09</title></rect><rect fill="#EBEDF0" height="4" rx="1" ry="1" width="4" x="274.6000000000001" y="41.300000000000004"><title>2021-12-10</title></rect><rect fill="#EBEDF0" height="4" rx="1" ry="1" width="4" x="274.6000000000001" y="46.699999999999996"><title>2021-12-11</title></rect><rect fill="#EBEDF0" height="4" rx="1" ry="1" width="4" x="274.6000000000001" y="52.1"><title>2021-12-12</title></rect><rect fill="#EBEDF0" height="4" rx="1" ry="1" width="4" x="280.00000000000006" y="19.7"><title>2021-12-13</title></rect><rect fill="#EBEDF0" height="4" rx="1" ry="1" width="4" x="280.00000000000006" y="25.1"><title>2021-12-14</title></rect><rect fill="#EBEDF0" height="4" rx="1" ry="1" width="4" x="280.00000000000006" y="30.5"><title>2021-12-15</title></rect><rect fill="#EBEDF0" height="4" rx="1" ry="1" width="4" x="280.00000000000006" y="35.9"><title>2021-12-16</title></rect><rect fill="#EBEDF0" height="4" rx="1" ry="1" width="4" x="280.00000000000006" y="41.300000000000004"><title>2021-12-17</title></rect><rect fill="#EBEDF0" height="4" rx="1" ry="1" width="4" x="280.00000000000006" y="46.699999999999996"><title>2021-12-18</title></rect><rect fill="#EBEDF0" height="4" rx="1" ry="1" width="4" x="280.00000000000006" y="52.1"><title>2021-12-19</title></rect><rect fill="#EBEDF0" height="4" rx="1" ry="1" width="4" x="285.40000000000003" y="19.7"><title>2021-12-20</title></rect><rect fill="#EBEDF0" height="4" rx="1" ry="1" width="4" x="285.40000000000003" y="25.1"><title>2021-12-21</title></rect><rect fill="#EBEDF0" height="4" rx="1" ry="1" width="4" x="285.40000000000003" y="30.5"><title>2021-12-22</title></rect><rect fill="#EBEDF0" height="4" rx="1" ry="1" width="4" x="285.40000000000003" y="35.9"><title>2021-12-23</title></rect><rect fill="#EBEDF0" height="4" rx="1" ry="1" width="4" x="285.40000000000003" y="41.300000000000004"><title>2021-12-24</title></rect><rect fill="#EBEDF0" height="4" rx="1" ry="1" width="4" x="285.40000000000003" y="46.699999999999996"><title>2021-12-25</title></rect><rect fill="#EBEDF0" height="4" rx="1" ry="1" width="4" x="285.40000000000003" y="52.1"><title>2021-12-26</title></rect><rect fill="#EBEDF0" height="4" rx="1" ry="1" width="4" x="290.8" y="19.7"><title>2021-12-27</title></rect><rect fill="#EBEDF0" height="4" rx="1" ry="1" width="4" x="290.8" y="25.1"><title>2021-12-28</title></rect><rect fill="#EBEDF0" height="4" rx="1" ry="1" width="4" x="290.8" y="30.5"><title>2021-12-29</title></rect><rect fill="#EBEDF0" height="4" rx="1" ry="1" width="4" x="290.8" y="35.9"><title>2021-12-30</title></rect><rect fill="#EBEDF0" height="4" rx="1" ry="1" width="4" x="290.8" y="41.300000000000004"><title>2021-12-31</title></rect></svg>